# Blender 4.1.1
# www.blender.org
mtllib cube_with_face_colors.mtl
o Cube
v 1.000000 1.000000 -1.000000
v 1.000000 -1.000000 -1.000000
v 1.000000 1.000000 1.000000
v 1.000000 -1.000000 1.000000
v -1.000000 1.000000 -1.000000
v -1.000000 -1.000000 -1.000000
v -1.000000 1.000000 1.000000
v -1.000000 -1.000000 1.000000
vn -0.0000 1.0000 -0.0000
vn -0.0000 -0.0000 1.0000
vn -1.0000 -0.0000 -0.0000
vn -0.0000 -1.0000 -0.0000
vn 1.0000 -0.0000 -0.0000
vn -0.0000 -0.0000 -1.0000
vt 0.625000 0.500000
vt 0.875000 0.500000
vt 0.875000 0.750000
vt 0.625000 0.750000
vt 0.375000 0.750000
vt 0.625000 1.000000
vt 0.375000 1.000000
vt 0.375000 0.000000
vt 0.625000 0.000000
vt 0.625000 0.250000
vt 0.375000 0.250000
vt 0.125000 0.500000
vt 0.375000 0.500000
vt 0.125000 0.750000
s 0
g Cube_Material.001
usemtl Material.001
f 2/13/5 1/1/5 3/4/5 4/5/5
g Cube_Material.002
usemtl Material.002
f 4/5/2 3/4/2 7/6/2 8/7/2
g Cube_Material.003
usemtl Material.003
f 1/1/1 5/2/1 7/3/1 3/4/1
g Cube_Material.004
usemtl Material.004
f 6/11/6 5/10/6 1/1/6 2/13/6
g Cube_Material.005
usemtl Material.005
f 8/8/3 7/9/3 5/10/3 6/11/3
g Cube_Material.006
usemtl Material.006
f 6/12/4 2/13/4 4/5/4 8/14/4
